<?xml version="1.0" standalone="no"?>
<!DOCTYPE svg PUBLIC "-//W3C//DTD SVG 20010904//EN"
 "http://www.w3.org/TR/2001/REC-SVG-20010904/DTD/svg10.dtd">
<svg version="1.0" xmlns="http://www.w3.org/2000/svg"
 width="3809.000000pt" height="2069.000000pt" viewBox="0 0 3809.000000 2069.000000"
 preserveAspectRatio="xMidYMid meet">

<g transform="translate(0.000000,2069.000000) scale(0.100000,-0.100000)"
fill="#000000" stroke="none">
<path d="M9377 17712 l6 -2979 -758 -6 c-417 -4 -761 -9 -764 -13 -3 -3 -6
-581 -6 -1284 0 -1264 0 -1278 20 -1300 20 -22 20 -36 19 -2481 0 -1352 -3
-2462 -7 -2465 -4 -4 -263 -12 -577 -17 l-570 -11 0 -798 0 -798 -1185 0
-1185 0 2 3309 3 3309 -127 7 c-84 5 -128 11 -129 19 0 6 -4 70 -8 141 l-8
130 -573 1105 -572 1105 -5 148 -6 147 -58 0 -59 0 0 73 c0 39 -3 89 -6 110
l-7 37 -793 0 -794 0 0 -110 0 -110 -69 0 -68 0 -7 -46 c-3 -26 -6 -98 -6
-161 l0 -113 -540 -1088 -540 -1087 0 -6243 0 -6242 19045 0 19045 0 0 4209 0
4208 -222 7 c-1223 35 -2751 59 -2943 46 -128 -9 -253 -30 -282 -48 -8 -5 -20
-420 -42 -1477 -17 -809 -31 -1503 -31 -1542 l0 -73 -49 0 -48 0 -6 -447 c-4
-247 -10 -685 -13 -976 l-7 -527 -551 0 c-303 0 -703 3 -889 7 l-338 6 5 3321
c3 1827 9 3939 12 4695 l5 1374 -788 -7 c-433 -3 -872 -9 -974 -12 l-186 -7
-6 -271 c-4 -149 -9 -521 -12 -826 -3 -305 -8 -628 -11 -716 l-6 -162 -158 -3
c-87 -2 -161 -6 -164 -9 -2 -3 -11 -1688 -20 -3744 -8 -2056 -17 -3740 -19
-3743 -3 -2 -378 -1 -833 4 l-828 8 -9 40 c-9 40 -3 3566 10 5683 l6 1102 -87
0 -88 0 7 94 7 94 -30 7 c-20 4 -32 14 -36 28 -3 12 -1 119 4 237 5 118 10
223 10 232 0 10 24 33 55 53 30 19 55 37 55 40 0 3 -272 2 -603 -1 l-604 -7
-6 48 c-4 26 -7 85 -7 131 0 45 -3 89 -6 98 -6 14 -78 16 -714 16 l-708 0 -6
-62 c-3 -35 -8 -108 -12 -164 l-6 -101 -91 -7 c-49 -3 -178 -6 -287 -6 l-196
0 -72 -61 -72 -61 0 -89 0 -89 121 0 122 0 -8 -355 c-4 -196 -10 -368 -14
-383 -7 -24 -17 -30 -117 -58 l-109 -31 -3 -2236 -2 -2237 -595 0 -595 0 0
-637 -1 -638 -49 -60 -50 -60 0 -107 0 -108 -32 0 c-56 0 -471 29 -516 36 -24
4 -45 12 -47 18 -2 6 -9 1503 -15 3326 -7 1954 -16 3319 -21 3325 -5 5 -38 11
-73 13 -48 3 -67 9 -72 21 -12 28 -22 661 -29 1836 -4 622 -10 1218 -14 1325
l-6 195 -114 32 c-63 18 -118 36 -122 40 -5 5 -10 125 -12 268 -3 243 -29 581
-45 596 -4 3 -91 30 -194 59 -188 53 -188 53 -193 84 -6 44 -25 443 -25 551 0
110 -6 132 -33 138 -12 2 -93 23 -180 46 -87 22 -169 41 -183 41 -24 0 -24 2
-24 85 l0 85 -505 0 -505 0 0 -89 c0 -50 -4 -92 -8 -95 -5 -3 -61 -8 -126 -12
-142 -8 -136 -1 -136 -175 l0 -119 -113 0 -114 0 -6 578 c-4 317 -12 1217 -19
2000 l-12 1422 -57 0 -57 0 -6 -302 c-16 -826 -36 -4174 -42 -7160 l-7 -3338
-583 0 -583 0 -3 28 c-3 24 -7 27 -48 30 -28 2 -75 -6 -120 -20 l-75 -24 -3
-67 -3 -67 -334 0 -334 0 -3 117 -3 118 53 50 c47 45 65 75 45 75 -5 0 -23 14
-41 31 -22 21 -32 39 -32 60 l0 29 -624 0 -624 0 -6 -22 c-3 -13 -6 -50 -6
-83 0 -33 -4 -65 -8 -71 -4 -6 -49 -14 -102 -17 -52 -3 -116 -13 -142 -22
l-47 -17 -3 -121 -3 -122 -85 -3 c-53 -1 -139 -15 -230 -36 l-145 -34 -340 -5
c-304 -4 -346 -7 -395 -24 -48 -17 -55 -23 -58 -49 -1 -16 -6 -123 -11 -239
-7 -184 -11 -217 -31 -265 -22 -53 -23 -68 -30 -495 -5 -242 -8 -443 -9 -447
-1 -5 -19 -8 -41 -8 l-40 0 0 526 0 526 -27 39 -28 39 -362 0 -363 0 0 -200 0
-200 -935 0 -935 0 0 478 c0 488 26 5339 33 6276 l5 518 -1167 -6 c-641 -3
-1336 -9 -1543 -12 l-378 -6 0 2981 0 2981 -60 0 -59 0 6 -2978z"/>
</g>
</svg>
